<svg xmlns="http://www.w3.org/2000/svg" width="55.548" height="55.548" viewBox="0 0 55.548 55.548">
  <g id="services2" transform="translate(0)">
    <path id="Path_226" data-name="Path 226" d="M53.92,18.483a1.627,1.627,0,0,0,1.627-1.627V5.617A5.624,5.624,0,0,0,49.931,0H5.617A5.624,5.624,0,0,0,0,5.617V16.856a1.627,1.627,0,0,0,1.627,1.627H3.886V45.791H1.627A1.627,1.627,0,0,0,0,47.418v6.5a1.627,1.627,0,0,0,1.627,1.627H53.92a1.627,1.627,0,0,0,1.627-1.627v-6.5a1.627,1.627,0,0,0-1.627-1.627H51.662V18.483ZM3.255,5.617A2.365,2.365,0,0,1,5.617,3.255H49.931a2.365,2.365,0,0,1,2.363,2.362v9.611H3.255ZM26.061,24.336V18.483h3.426v5.853ZM52.293,52.293H3.255V49.045H52.293Zm-31.47-11.45V34.205H33.743v6.637a6.48,6.48,0,0,1-2.31,4.948h-8.3a6.48,6.48,0,0,1-2.31-4.948ZM38.59,34.205a1.659,1.659,0,0,1,0,3.317H37V34.205Zm9.817,11.585H35.639A9.721,9.721,0,0,0,37,40.843v-.066H38.59a4.913,4.913,0,0,0,0-9.827H19.2a1.627,1.627,0,0,0-1.627,1.627v8.265a9.721,9.721,0,0,0,1.358,4.948H7.141V18.483H22.806v7.481a1.627,1.627,0,0,0,1.627,1.627h1.721a1.627,1.627,0,0,0,3.238,0h1.721a1.627,1.627,0,0,0,1.627-1.627V18.483H48.407V45.791Z" transform="translate(0 0)" fill="#efc6ba"/>
  </g>
</svg>
