<svg xmlns="http://www.w3.org/2000/svg" width="58.489" height="55.548" viewBox="0 0 58.489 55.548">
  <g id="services4" transform="translate(0)">
    <path id="Path_227" data-name="Path 227" d="M15.221,256.694a17.583,17.583,0,0,0-9.961,5.137,17.583,17.583,0,0,0-5.137,9.961,11,11,0,0,0,2.886,9.479,10.593,10.593,0,0,0,7.655,3.008,13.894,13.894,0,0,0,1.824-.123,17.583,17.583,0,0,0,9.961-5.137,17.583,17.583,0,0,0,5.137-9.961A11,11,0,0,0,24.7,259.58,11,11,0,0,0,15.221,256.694ZM3.528,272.243a14.14,14.14,0,0,1,4.161-7.983,14.139,14.139,0,0,1,7.983-4.161,10.337,10.337,0,0,1,1.356-.091,7.385,7.385,0,0,1,4.832,1.626,7.358,7.358,0,0,1-1.994.7,9.36,9.36,0,0,0-4.987,2.692,9.362,9.362,0,0,0-2.692,4.987,6.007,6.007,0,0,1-1.785,3.378,6.008,6.008,0,0,1-3.378,1.786,10.116,10.116,0,0,0-3.128,1.2,8.829,8.829,0,0,1-.367-4.138Zm20.652-3.635a14.14,14.14,0,0,1-4.161,7.983,14.139,14.139,0,0,1-7.983,4.161,7.831,7.831,0,0,1-6.187-1.535,7.363,7.363,0,0,1,1.994-.7,9.362,9.362,0,0,0,4.987-2.692,9.362,9.362,0,0,0,2.692-4.987,6.481,6.481,0,0,1,5.163-5.163,10.115,10.115,0,0,0,3.127-1.2A8.832,8.832,0,0,1,24.18,268.608Z" transform="translate(0 -228.732)" fill="#efc6ba"/>
    <path id="Path_228" data-name="Path 228" d="M196.314,40.58a13.9,13.9,0,0,0,1.824-.123,17.583,17.583,0,0,0,9.961-5.137,17.583,17.583,0,0,0,5.137-9.961,11,11,0,0,0-2.886-9.479,11.005,11.005,0,0,0-9.479-2.886,17.583,17.583,0,0,0-9.961,5.137,17.583,17.583,0,0,0-5.137,9.961,11,11,0,0,0,2.886,9.479,10.593,10.593,0,0,0,7.656,3.008ZM209.83,24.908a14.14,14.14,0,0,1-4.161,7.983,14.14,14.14,0,0,1-7.983,4.161,7.831,7.831,0,0,1-6.187-1.535,7.361,7.361,0,0,1,1.994-.7,9.9,9.9,0,0,0,7.679-7.679,6.481,6.481,0,0,1,5.163-5.163,10.115,10.115,0,0,0,3.127-1.2A8.83,8.83,0,0,1,209.83,24.908Zm-20.652,3.635a14.14,14.14,0,0,1,4.161-7.983,14.14,14.14,0,0,1,7.983-4.161,10.335,10.335,0,0,1,1.356-.092,7.385,7.385,0,0,1,4.832,1.626,7.358,7.358,0,0,1-1.994.7,9.9,9.9,0,0,0-7.679,7.679,6.482,6.482,0,0,1-5.163,5.163,10.116,10.116,0,0,0-3.128,1.2A8.828,8.828,0,0,1,189.178,28.543Z" transform="translate(-164.442 -12.872)" fill="#efc6ba"/>
    <path id="Path_229" data-name="Path 229" d="M294.143,259.58a11,11,0,0,0-9.479-2.886,18.413,18.413,0,0,0-15.1,15.1,11,11,0,0,0,2.886,9.479,10.593,10.593,0,0,0,7.655,3.008,13.9,13.9,0,0,0,1.824-.123,18.413,18.413,0,0,0,15.1-15.1A11,11,0,0,0,294.143,259.58Zm-21.172,12.663A14.992,14.992,0,0,1,285.115,260.1a10.343,10.343,0,0,1,1.356-.091,7.385,7.385,0,0,1,4.832,1.626,7.358,7.358,0,0,1-1.994.7,9.9,9.9,0,0,0-7.679,7.679,6.482,6.482,0,0,1-5.163,5.163,10.116,10.116,0,0,0-3.128,1.2A8.827,8.827,0,0,1,272.971,272.243Zm20.652-3.635a14.992,14.992,0,0,1-12.143,12.143,7.831,7.831,0,0,1-6.187-1.535,7.363,7.363,0,0,1,1.994-.7,9.9,9.9,0,0,0,7.679-7.679,6.481,6.481,0,0,1,5.163-5.163,10.116,10.116,0,0,0,3.127-1.2A8.827,8.827,0,0,1,293.623,268.608Z" transform="translate(-238.663 -228.732)" fill="#efc6ba"/>
  </g>
</svg>
