<svg xmlns="http://www.w3.org/2000/svg" width="55.55" height="55.548" viewBox="0 0 55.55 55.548">
  <g id="services1" transform="translate(0)">
    <path id="Path_224" data-name="Path 224" d="M19.26,55.55A7.211,7.211,0,0,1,12.5,50.867l-1.718-4.581a2.589,2.589,0,0,0-1.516-1.514l-4.583-1.72A7.221,7.221,0,0,1,.646,33.3L2.67,28.849a2.585,2.585,0,0,0,0-2.143L.646,22.247A7.221,7.221,0,0,1,4.683,12.5l4.581-1.72a2.583,2.583,0,0,0,1.516-1.514L12.5,4.685A7.222,7.222,0,0,1,22.248.646L26.7,2.671a2.6,2.6,0,0,0,2.143,0L33.3.646a7.218,7.218,0,0,1,9.748,4.037l1.718,4.581a2.589,2.589,0,0,0,1.516,1.514l4.583,1.72A7.221,7.221,0,0,1,54.9,22.245L52.882,26.7a2.585,2.585,0,0,0,0,2.143L54.907,33.3a7.221,7.221,0,0,1-4.037,9.748l-4.581,1.72a2.583,2.583,0,0,0-1.516,1.514l-1.72,4.581A7.218,7.218,0,0,1,33.306,54.9L28.85,52.874a2.6,2.6,0,0,0-2.143,0L22.248,54.9A7.241,7.241,0,0,1,19.26,55.55Zm0-50.925a2.608,2.608,0,0,0-2.426,1.687l-1.72,4.581a7.222,7.222,0,0,1-4.224,4.222l-4.581,1.72a2.588,2.588,0,0,0-1.449,3.5l2.025,4.456a7.219,7.219,0,0,1,0,5.977L4.864,35.219a2.588,2.588,0,0,0,1.449,3.5l4.583,1.72a7.212,7.212,0,0,1,4.222,4.222l1.72,4.581a2.592,2.592,0,0,0,3.5,1.451l4.458-2.025a7.209,7.209,0,0,1,5.972,0l4.456,2.025a2.59,2.59,0,0,0,3.5-1.451l1.72-4.581a7.21,7.21,0,0,1,4.224-4.222l4.581-1.72a2.588,2.588,0,0,0,1.449-3.5l-2.025-4.456a7.219,7.219,0,0,1,0-5.977l2.023-4.456a2.588,2.588,0,0,0-1.449-3.5l-4.583-1.72a7.212,7.212,0,0,1-4.222-4.222l-1.72-4.581a2.592,2.592,0,0,0-3.5-1.451L30.762,6.886a7.209,7.209,0,0,1-5.972,0L20.334,4.861a2.575,2.575,0,0,0-1.072-.236ZM29.8,4.778h.023Z" transform="translate(-0.001 -0.002)" fill="#efc6ba"/>
    <path id="Path_225" data-name="Path 225" d="M30.058,19.423A14.225,14.225,0,0,0,25.9,11.241C20.961,6.308,13.665,5.583,9.631,9.616A9.472,9.472,0,0,0,7.091,17.7a14.225,14.225,0,0,0,4.162,8.183,13.86,13.86,0,0,0,9.616,4.234,9.242,9.242,0,0,0,6.65-2.609,9.472,9.472,0,0,0,2.539-8.083Zm-7.435-4.91A9.593,9.593,0,0,1,25.466,20c.014.113,0,.215.012.326a7.511,7.511,0,0,0-1.359-1.831,7.652,7.652,0,0,0-5.354-2.238,3.121,3.121,0,0,1-3.37-3.356c-.03-.361-.076-.762-.141-1.178a5.843,5.843,0,0,1,1.016-.09A9.346,9.346,0,0,1,22.623,14.514Zm-8.1,8.095a9.593,9.593,0,0,1-2.843-5.484c-.014-.116,0-.222-.012-.336a7.661,7.661,0,0,0,6.713,4.076,3.183,3.183,0,0,1,2.465.905,3.1,3.1,0,0,1,.887,2.421c.03.363.072.769.137,1.187A8.776,8.776,0,0,1,14.526,22.609Z" transform="translate(9.199 9.211)" fill="#efc6ba"/>
  </g>
</svg>
