<svg xmlns="http://www.w3.org/2000/svg" width="53.354" height="55.548" viewBox="0 0 53.354 55.548">
  <g id="services3" transform="translate(0)">
    <g id="Group_295" data-name="Group 295" transform="translate(40.126 0)">
      <g id="Group_294" data-name="Group 294">
        <path id="Path_230" data-name="Path 230" d="M383.3,1.358a1.785,1.785,0,0,0-.1-.316,1.719,1.719,0,0,0-.155-.29,1.615,1.615,0,0,0-.209-.257,1.721,1.721,0,0,0-.257-.211,1.738,1.738,0,0,0-.292-.155,1.706,1.706,0,0,0-.316-.1,1.67,1.67,0,0,0-.66,0,1.787,1.787,0,0,0-.316.1,1.712,1.712,0,0,0-.29.155,1.712,1.712,0,0,0-.468.468,1.721,1.721,0,0,0-.155.29,1.793,1.793,0,0,0-.1.316,1.694,1.694,0,0,0-.032.331,1.673,1.673,0,0,0,.032.329,1.694,1.694,0,0,0,.1.316,1.676,1.676,0,0,0,.155.292,1.724,1.724,0,0,0,.211.257,1.626,1.626,0,0,0,.257.209,1.717,1.717,0,0,0,.29.155,1.784,1.784,0,0,0,.316.1,1.7,1.7,0,0,0,.331.034,1.664,1.664,0,0,0,.329-.034,1.7,1.7,0,0,0,.316-.1,1.726,1.726,0,0,0,.292-.155,1.639,1.639,0,0,0,.466-.466,1.67,1.67,0,0,0,.155-.292,1.708,1.708,0,0,0,.1-.316,1.631,1.631,0,0,0,0-.66Z" transform="translate(-379.959 0.001)" fill="#efc6ba"/>
      </g>
    </g>
    <g id="Group_297" data-name="Group 297" transform="translate(0 4.163)">
      <g id="Group_296" data-name="Group 296">
        <path id="Path_231" data-name="Path 231" d="M53.705,70.8h4.61a3.593,3.593,0,0,0,3.546-3.092L63.43,56.275a3.579,3.579,0,0,0-5.759-3.3l-.624.491.294-1.662a5.242,5.242,0,0,0-5.162-6.155h-4.96l3.206-4.623A1.689,1.689,0,0,0,47.65,39.1l-4.54,6.547H20.551A5.242,5.242,0,0,0,15.389,51.8l2.854,16.131a16.151,16.151,0,0,0,6.033,9.988H11.8a1.689,1.689,0,0,0-1.54,2.382A16.061,16.061,0,0,0,24.882,89.76H47.848A16.061,16.061,0,0,0,62.471,80.3a1.689,1.689,0,0,0-1.54-2.382H48.454A16.147,16.147,0,0,0,53.705,70.8Zm2.458-12.341,3.6-2.829a.2.2,0,0,1,.325.186L58.515,67.247a.2.2,0,0,1-.2.174H54.578ZM57.988,81.3a12.683,12.683,0,0,1-10.14,5.082H24.882A12.683,12.683,0,0,1,14.742,81.3H57.988ZM38.556,77.923H34.174A12.791,12.791,0,0,1,21.569,67.347L19.72,56.9H41.478a1.689,1.689,0,0,0,0-3.377H19.123l-.408-2.3a1.865,1.865,0,0,1,1.836-2.189H52.179a1.865,1.865,0,0,1,1.836,2.189L51.161,67.347A12.791,12.791,0,0,1,38.556,77.923Z" transform="translate(-10.11 -38.375)" fill="#efc6ba"/>
      </g>
    </g>
    <g id="Group_299" data-name="Group 299" transform="translate(34.714 19.31)">
      <g id="Group_298" data-name="Group 298">
        <path id="Path_232" data-name="Path 232" d="M333.419,179.343a1.759,1.759,0,0,0-.1-.317,1.681,1.681,0,0,0-.367-.547,1.7,1.7,0,0,0-.863-.461,1.671,1.671,0,0,0-.66,0,1.59,1.59,0,0,0-.316.1,1.56,1.56,0,0,0-.292.155,1.615,1.615,0,0,0-.257.209,1.7,1.7,0,0,0-.495,1.194,1.666,1.666,0,0,0,.034.329,1.7,1.7,0,0,0,.1.316,1.667,1.667,0,0,0,.156.292,1.635,1.635,0,0,0,.466.466,1.669,1.669,0,0,0,.292.155,1.591,1.591,0,0,0,.316.1,1.632,1.632,0,0,0,.66,0,1.627,1.627,0,0,0,.316-.1,1.714,1.714,0,0,0,.29-.155,1.617,1.617,0,0,0,.257-.209,1.725,1.725,0,0,0,.211-.257,1.674,1.674,0,0,0,.155-.292,1.708,1.708,0,0,0,.1-.316,1.646,1.646,0,0,0,.032-.329A1.673,1.673,0,0,0,333.419,179.343Z" transform="translate(-330.074 -177.984)" fill="#efc6ba"/>
      </g>
    </g>
  </g>
</svg>
